<?xml version="1.0" encoding="utf-8"?>
<!-- Generator: Adobe Illustrator 22.0.0, SVG Export Plug-In . SVG Version: 6.00 Build 0)  -->
<svg version="1.1" id="Layer_1" xmlns="http://www.w3.org/2000/svg" xmlns:xlink="http://www.w3.org/1999/xlink" x="0px" y="0px"
	 viewBox="0 0 1280 1024" style="enable-background:new 0 0 1280 1024;" xml:space="preserve">
<style type="text/css">
	.st0{enable-background:new    ;}
	.st1{display:none;fill:none;}
	.st2{display:none;}
	.st3{display:none;fill:none;stroke:#000000;stroke-miterlimit:10;}
</style>
<g id="underline">
</g>
<g id="Layer_1_1_">
	<g class="st0">
		<path d="M459.3,361.7c-0.3,0.3-0.6,0.5-0.9,0.5c-0.4,0-0.6-0.2-0.6-0.6c0-0.4,0.1-0.7,0.3-0.9c2.2-2.4,4.7-6,7.6-10.9
			c2.9-4.8,5.6-9.9,8.1-15.1c-6.1-4.3-9.2-8.6-9.2-13.1c0-3,0.7-6,2.1-9.1c1.4-3.1,3.3-5.6,5.7-7.6c2.4-2,4.7-3,6.8-3
			c2.2,0,3.7,0.5,4.5,1.5c0.8,1,1.2,2.5,1.2,4.5c0,3.7-2.2,10.6-6.7,20.7c1.6,1.1,3.7,2.3,6.4,3.9s4.9,2.8,6.8,3.9
			c1.9,1.1,3.8,2.4,5.7,3.8c3.9,3,5.9,6.3,5.9,9.8c0,3.5-1.8,6.8-5.5,9.9c-3.6,3-7.3,4.6-11.1,4.6c-5.9,0-11.2-3.1-15.8-9.2
			c-0.5-0.7-0.8-1.3-0.8-1.8s0.6-1.2,1.8-2.2c1.2-1,2.1-1.5,2.8-1.5c0.1,0,0.3,0.1,0.4,0.2c1.3,2.3,3.6,4.7,7,7.2
			c3.4,2.5,6.6,3.8,9.9,3.8c4-0.3,6-2.3,6-5.9c0-3.1-1.8-6-5.3-8.6c-2.6-2-5.8-4-9.6-6.2c-3.8-2.2-6.4-3.8-7.8-4.7
			C469.3,347.7,464,356.4,459.3,361.7z M468.7,314.8c0,4.6,2.7,8.9,8.2,12.9c2.5-6.5,3.8-11.7,3.8-15.6c0-1.7-0.6-3.2-1.7-4.7
			c-1.1-1.4-2.3-2.2-3.7-2.2s-2.6,0.7-3.7,2.2c-1.1,1.4-1.8,2.9-2.3,4.3C468.9,313.1,468.7,314.2,468.7,314.8z"/>
		<path d="M514.7,363.7c-2.8,0-4.9-0.9-6.4-2.8c-1.5-1.9-2.3-4.2-2.3-7.1s0.9-5.5,2.7-8c1.8-2.4,4.3-3.7,7.5-3.9
			c0.8-1.2,1.9-1.8,3.4-1.8c1.5,0,2.9,0.9,4.1,2.6c1.2,1.8,1.8,4,1.8,6.8c0,2.8-0.4,5.2-1.2,7.1c1.2,0.9,2.4,1.3,3.7,1.3
			c2.5,0,4.9-1.7,7.1-5.1l0.6,0.7c-2.4,3.8-5.2,5.8-8.6,5.8c-1.3,0-2.6-0.3-3.8-0.9c-1.1,1.6-2.4,2.9-3.9,3.8
			C517.9,363.3,516.3,363.7,514.7,363.7z M511.3,352.1c0,2.1,0.6,3.9,1.7,5.4c1.1,1.5,2.6,2.2,4.4,2.2c1.8,0,3.3-0.6,4.5-1.9
			c-1.9-1.3-3.4-3.1-4.6-5.5c-1.2-2.4-1.8-4.9-1.8-7.6c0-0.3,0-0.7,0.1-1.2C512.7,345.5,511.3,348.3,511.3,352.1z M523.2,355.8
			c0.6-1.4,0.9-3.1,0.9-5.3c0-2.1-0.3-3.8-0.8-5c-0.6-1.2-1.2-1.8-1.9-1.8c-0.5,0-1,0.3-1.4,1c-0.4,0.7-0.6,1.6-0.6,2.8
			c0,1.2,0.3,2.6,1,4.2C521.1,353.3,522,354.6,523.2,355.8z"/>
		<path d="M548.4,343.6c0-1.4-0.9-2.2-2.7-2.2c-1.8,0-3.3,0.8-4.5,2.4c-1.2,1.6-1.8,3.7-1.8,6.2c0,2.5,1,4.8,2.9,6.8
			c1.9,2,4.9,3.1,8.7,3.1c2.4,0,4.8-0.6,7.2-1.8c2.3-1.2,4.3-2.9,5.9-5.3l0.5,0.9c-1.7,3.1-4.4,5.5-8,7.3c-3.6,1.7-7.2,2.6-10.8,2.6
			c-3.6,0-6.6-0.8-8.9-2.3c-2.3-1.5-3.4-3.7-3.4-6.5c0-3.6,1.4-7,4.3-10.2c2.9-3.2,6.4-4.8,10.7-4.8c1.5,0,2.6,0.4,3.3,1.1
			c0.7,0.7,1.1,1.7,1.1,3s-0.4,2.4-1.3,3.6c-0.9,1.2-1.8,1.8-3,1.8c-0.6,0-1.2-0.2-1.8-0.7c-0.6-0.5-0.9-0.8-0.9-1.2
			c0-0.3,0.1-0.6,0.4-0.8c0.2-0.2,0.5-0.4,0.9-0.6C548,345.6,548.4,344.8,548.4,343.6z"/>
		<path d="M569.8,329.3c0.7,0.8,1.1,1.8,1.1,3c0,1.2-0.4,2.1-1.1,3c-0.7,0.8-1.6,1.2-2.7,1.2c-1,0-1.9-0.4-2.6-1.2
			c-0.7-0.8-1.1-1.8-1.1-3c0-1.2,0.4-2.1,1.1-3c0.7-0.8,1.6-1.2,2.6-1.2C568.2,328,569.1,328.4,569.8,329.3z M563.8,344.7
			c-0.2,2-0.4,3.7-0.4,5c0,4.6,0.9,8.1,2.6,10.6c1.8,2.5,3.9,3.8,6.4,3.8s5-0.9,7.5-2.6c2.5-1.8,4.8-4.3,7-7.7l-0.5-0.9
			c-3.7,5.1-7.2,7.7-10.4,7.7c-2,0-3.6-1.1-4.9-3.2c-1.2-2.2-1.9-5.1-1.9-8.8c0-1.9,0.2-3.9,0.5-5.8c0-0.4-0.2-0.6-0.5-0.6
			c-0.4,0-2,0.6-4.9,1.7C564,344,563.8,344.3,563.8,344.7z"/>
		<path d="M599.5,342c0.1-0.3,1.5-0.4,3.9-0.4c2.5,0,3.7,0.4,3.7,1.1c0,0.1-0.1,0.4-0.4,0.9c-1.7,2.3-2.5,4.7-2.5,7.2
			c0,2.5,0.6,4.5,1.8,6.2c1.2,1.6,2.7,2.4,4.5,2.4c3,0,6-2.1,9.1-6.3l0.5,0.9c-3.7,6-7.9,8.9-12.4,8.9c-3.4,0-6-1.8-7.8-5.3
			c-0.8,1.2-2,2.2-3.7,3.2c-1.7,1-3.4,1.5-4.9,1.5c-4.2,0-6.3-1.8-6.3-5.3c0-2.7,1.2-5.6,3.5-8.6c2.3-3,4.6-4.5,6.9-4.5
			c0.2,0,0.3,0.1,0.3,0.2c0,0.1-0.1,0.3-0.3,0.5c-1,0.5-1.9,1.6-2.6,3.3c-0.7,1.7-1,3.3-1,5.1c0,3.5,1.3,5.3,4,5.3
			c0.8,0,1.5-0.2,2.2-0.6c0.7-0.4,1.1-1,1.3-1.8c-0.6-1.7-0.9-3.4-0.9-5.3c0-1.8,0.1-3.4,0.2-4.6C598.8,343.3,599.1,342,599.5,342z"
			/>
		<path d="M636.7,359.6c2.1,0,4.2-0.6,6.4-1.8c2.2-1.2,3.9-2.8,5.3-4.9l0.5,0.9c-1.8,3.2-4.4,5.7-7.6,7.5c-3.2,1.8-6.4,2.8-9.5,2.8
			h-0.2c-3.7,0-6.9-1.4-9.5-4.2c-5.1-5.4-7.6-13.6-7.6-24.8c0-5.8,0.8-11.3,2.3-16.4c1.5-5.1,3.9-9.5,7.2-13
			c3.3-3.5,7.1-5.3,11.4-5.3c5,0,7.6,3.1,7.6,9.2c0,5.4-1.8,12.1-5.5,20.1c-3.7,8-8.1,15-13.1,21
			C627.4,356.7,631.5,359.6,636.7,359.6z M637.5,312.1c0-5.8-2.1-8.7-6.2-8.7c-3.6,0-6.5,2.4-8.6,7.3c-2.1,4.9-3.1,11.1-3.1,18.6
			c0,7.5,1.3,14.2,4,20c3.4-4.4,6.5-10.4,9.5-18C636,323.7,637.5,317.3,637.5,312.1z"/>
		<path d="M670.2,352.9l0.5,0.9c-2,3.2-4.4,5.7-7.3,7.4c-2.8,1.7-5.5,2.6-8.1,2.6c-5.1,0-8.5-2.2-10.2-6.6c0-0.2,0.6-1,1.7-2.4
			c1.1-1.3,1.8-2,2.2-2c0.4,0,0.6,0.1,0.6,0.4c0.3,1.5,1.1,3.2,2.4,4.9c1.3,1.7,2.5,2.6,3.6,2.6c1.7,0,2.6-0.5,2.7-1.4
			c0-1.5-1.8-3.7-5.3-6.8c-1.3-1.2-2.5-2.6-3.6-4.4s-1.6-3.7-1.6-5.6c0-0.4,0.1-0.6,0.2-0.8c2.1-1.9,3.5-2.9,4.2-2.9
			c0.5,0,0.8,0.4,0.8,1.2c0,1.8,0.8,3.6,2.3,5.5c1.5,1.9,2.9,3.7,4.3,5.4c1.4,1.7,2.1,3.4,2.1,5.1c0,1.7-0.8,3.2-2.5,4.6
			C663.2,360.5,666.8,357.9,670.2,352.9z"/>
	</g>
	<rect x="548.9" y="354.3" class="st1" width="103.4" height="20.2"/>
	<rect x="468" y="334" class="st1" width="161.8" height="5.6"/>
	<path class="st2" d="M609,416"/>
	<path class="st3" d="M443,469"/>
	<g>
		<path d="M460.6,401.1c2-1.3,3.9-2.4,5.9-3.5s3.9-2.1,5.9-3.1c4-2,8-3.8,12.2-5.5c8.2-3.4,16.6-6.3,25.1-8.7
			c17-4.9,34.5-7.9,52.1-9.4c17.6-1.4,35.2-1.4,52.8,0.2c17.5,1.5,34.9,4.4,51.9,8.5c-17.2-3.6-34.6-6-52.1-7
			c-17.5-1.1-35-0.6-52.4,1.3c-17.3,2-34.5,5.5-51.1,10.8c-8.3,2.6-16.4,5.7-24.3,9.2c-4,1.8-7.9,3.6-11.7,5.7
			c-1.9,1-3.8,2.1-5.6,3.2c-1.8,1.1-3.7,2.2-5.3,3.4L460.6,401.1z"/>
	</g>
</g>
</svg>
